<?xml version="1.0" standalone="no"?>
<!DOCTYPE svg PUBLIC "-//W3C//DTD SVG 20010904//EN"
 "http://www.w3.org/TR/2001/REC-SVG-20010904/DTD/svg10.dtd">
<svg version="1.0" xmlns="http://www.w3.org/2000/svg"
 width="700.000000pt" height="700.000000pt" viewBox="0 0 700.000000 700.000000"
 preserveAspectRatio="xMidYMid meet">
<metadata>
Created by potrace 1.11, written by Peter Selinger 2001-2013
</metadata>
<g transform="translate(0.000000,700.000000) scale(0.100000,-0.100000)"
fill="#000000" stroke="none">
<path d="M870 6778 c-63 -3 -124 -9 -135 -11 -267 -66 -469 -286 -510 -552 -8
-52 -8 -3604 0 -3670 33 -273 244 -503 515 -560 56 -12 150 -15 431 -15 l359
0 0 -922 0 -923 923 922 922 923 1420 1 c1353 0 1423 1 1490 19 182 49 342
178 422 340 78 158 73 18 73 2045 0 1081 -4 1831 -9 1861 -26 136 -87 251
-186 349 -117 118 -254 181 -415 191 -123 8 -5163 10 -5300 2z"/>
</g>
</svg>
